<svg xmlns="http://www.w3.org/2000/svg" viewBox="0 0 512 512"><title>destination</title><circle cx="119.9" cy="396.71" r="24.86"/><circle cx="51" cy="396.71" r="24.86"/><path d="M371.76,69.29V183.62L233.24,69.35V352.13H45.32a44.58,44.58,0,1,0,0,89.16H511.6V186.87ZM45.32,437.37a40.66,40.66,0,1,1,0-81.31H233.24v81.31Z"/><circle cx="192.35" cy="396.71" r="24.86"/><path d="M213.5,348.48H41.22V224.15H213.5ZM45.15,344.55H209.57V228.08H45.15Z"/><rect x="155.5" y="282.61" width="8.07" height="24.11" transform="translate(319.07 589.34) rotate(-180)"/><rect x="138.83" y="258.08" width="8.07" height="48.65" transform="translate(285.73 564.8) rotate(-180)"/><rect x="123.17" y="282.61" width="8.07" height="24.11" transform="translate(254.4 589.34) rotate(-180)"/><rect x="107.18" y="282.61" width="8.07" height="24.11" transform="translate(222.43 589.34) rotate(-180)"/><rect x="91.04" y="258.08" width="8.07" height="48.65" transform="translate(190.15 564.8) rotate(-180)"/></svg>