<svg xmlns="http://www.w3.org/2000/svg" viewBox="0 0 512 512"><title>receipt</title><circle cx="392.57" cy="396.91" r="24.92"/><circle cx="461.62" cy="396.91" r="24.92"/><path d="M467.32,352.22H279V68.81L140.15,183.34V68.76L0,186.6v255H467.32a44.69,44.69,0,0,0,0-89.37Zm0,85.43H279V356.16H467.32a40.75,40.75,0,0,1,0,81.49Z"/><circle cx="319.95" cy="396.91" r="24.92"/><rect x="300.73" y="225.93" width="168.72" height="120.67" style="fill:none;stroke:#000;stroke-miterlimit:10"/><rect x="348.8" y="282.55" width="8.09" height="24.17"/><rect x="365.51" y="257.97" width="8.09" height="48.75"/><rect x="381.21" y="282.55" width="8.09" height="24.17"/><rect x="397.23" y="282.55" width="8.09" height="24.17"/><rect x="413.4" y="257.97" width="8.09" height="48.75"/></svg>