<?xml version="1.0" encoding="utf-8"?>
<!-- Generator: Adobe Illustrator 24.3.0, SVG Export Plug-In . SVG Version: 6.00 Build 0)  -->
<svg version="1.1" id="mdi-warehouse" xmlns="http://www.w3.org/2000/svg" xmlns:xlink="http://www.w3.org/1999/xlink" x="0px"
	 y="0px" viewBox="0 0 512 512" style="enable-background:new 0 0 512 512;" xml:space="preserve">
<path d="M102.7,434.9h51.1V486h-51.1V434.9 M256,26L0.5,153.8V486h51.1V281.5h408.8V486h51.1V153.8L256,26 M153.8,230.4H51.6v-51.1
	h102.2V230.4 M307.1,230.4H204.9v-51.1h102.2V230.4 M460.4,230.4H358.2v-51.1h102.2V230.4 M102.7,332.6h51.1v51.1h-51.1V332.6
	 M204.9,332.6H256v51.1h-51.1V332.6 M204.9,434.9H256V486h-51.1V434.9 M307.1,434.9h51.1V486h-51.1V434.9z"/>
</svg>
