<?xml version="1.0" encoding="utf-8"?>
<!-- Generator: Adobe Illustrator 22.0.1, SVG Export Plug-In . SVG Version: 6.00 Build 0)  -->
<svg version="1.1" id="Calque_1" xmlns="http://www.w3.org/2000/svg" xmlns:xlink="http://www.w3.org/1999/xlink" x="0px" y="0px"
	 viewBox="0 0 144 144" style="enable-background:new 0 0 144 144;" xml:space="preserve">
<style type="text/css">
	.st0{fill:none;}
	.st1{fill:#7DBA46;}
	.st2{fill:#DB2429;}
</style>
<g>
	<polygon class="st0" points="45,45 36,36 36,54 63,54 36,81 63,81 36,108 108,108 81,81 108,81 81,54 108,54 108,36 99,45 	"/>
	<path class="st1" d="M108,36v18H81l27,27H81l27,27H36l27-27H36l27-27H36V36L21.1,21.1C8.1,34.1,0,52.1,0,72c0,39.8,32.2,72,72,72
		s72-32.2,72-72c0-19.9-8.1-37.9-21.1-50.9L108,36z"/>
	<path class="st2" d="M108,36l14.9-14.9C109.9,8.1,91.9,0,72,0S34.1,8.1,21.1,21.1L36,36H108z"/>
</g>
</svg>
